<svg width="33" height="34" viewBox="0 0 33 34" fill="none" xmlns="http://www.w3.org/2000/svg">
<path d="M31.6348 11.2275C32.5281 11.2275 33 10.7219 33 9.8455V5.71629C33 2.24438 31.2303 0.508423 27.7079 0.508423H23.5787C22.7022 0.508423 22.2135 0.980333 22.2135 1.85674C22.2135 2.73314 22.7022 3.22191 23.5787 3.22191H27.6573C29.3258 3.22191 30.2865 4.11516 30.2865 5.86797V9.8455C30.2865 10.7219 30.7753 11.2275 31.6348 11.2275ZM1.34831 11.2275C2.24157 11.2275 2.71348 10.7219 2.71348 9.8455V5.86797C2.71348 4.11516 3.64045 3.22191 5.32584 3.22191H9.40449C10.2978 3.22191 10.7865 2.73314 10.7865 1.85674C10.7865 0.980333 10.2978 0.508423 9.40449 0.508423H5.29213C1.76966 0.508423 0 2.24438 0 5.71629V9.8455C0 10.7219 0.488764 11.2275 1.34831 11.2275ZM15.1517 19.8399H15.2865C16.9888 19.8399 17.9157 18.9129 17.9157 17.2107V11.9017C17.9157 11.2444 17.4775 10.823 16.8371 10.823C16.1629 10.823 15.7247 11.2444 15.7247 11.9017V17.3624C15.7247 17.5309 15.6236 17.6152 15.4719 17.6152H14.882C14.2753 17.6152 13.8034 18.0871 13.8034 18.6938C13.8034 19.4185 14.2921 19.8399 15.1517 19.8399ZM10.0787 15.8624C10.8708 15.8624 11.4438 15.3062 11.4438 14.4972V12.2051C11.4438 11.3961 10.8708 10.8399 10.0787 10.8399C9.28652 10.8399 8.73034 11.3961 8.73034 12.2051V14.4972C8.73034 15.3062 9.28652 15.8624 10.0787 15.8624ZM22.8708 15.8624C23.6461 15.8624 24.2022 15.3062 24.2022 14.4972V12.2051C24.2022 11.3961 23.6461 10.8399 22.8708 10.8399C22.0618 10.8399 21.5056 11.3961 21.5056 12.2051V14.4972C21.5056 15.3062 22.0618 15.8624 22.8708 15.8624ZM16.3989 25.5028C18.4382 25.5028 20.4944 24.6264 21.9607 23.1601C22.1629 22.9747 22.264 22.6882 22.264 22.3511C22.264 21.7107 21.7921 21.2556 21.1685 21.2556C20.8483 21.2556 20.6124 21.3736 20.2921 21.7107C19.3652 22.6713 17.8989 23.3286 16.3989 23.3286C14.9831 23.3286 13.5 22.7051 12.5225 21.7107C12.2528 21.4579 12.0337 21.2556 11.6292 21.2556C11.0056 21.2556 10.5337 21.7107 10.5337 22.3511C10.5337 22.6376 10.6348 22.9073 10.8539 23.1433C12.2191 24.6938 14.3596 25.5028 16.3989 25.5028ZM5.29213 33.4916H9.40449C10.2978 33.4916 10.7865 33.0028 10.7865 32.1433C10.7865 31.2669 10.2978 30.7781 9.40449 30.7781H5.32584C3.64045 30.7781 2.71348 29.8848 2.71348 28.132V24.1545C2.71348 23.2612 2.22472 22.7725 1.34831 22.7725C0.47191 22.7725 0 23.2612 0 24.1545V28.2669C0 31.7556 1.76966 33.4916 5.29213 33.4916ZM23.5787 33.4916H27.7079C31.2303 33.4916 33 31.7388 33 28.2669V24.1545C33 23.2612 32.5112 22.7725 31.6348 22.7725C30.7584 22.7725 30.2865 23.2612 30.2865 24.1545V28.132C30.2865 29.8848 29.3258 30.7781 27.6573 30.7781H23.5787C22.7022 30.7781 22.2135 31.2669 22.2135 32.1433C22.2135 33.0028 22.7022 33.4916 23.5787 33.4916Z" fill="white"/>
</svg>
