<svg width="24" height="21" viewBox="0 0 24 21" fill="none" xmlns="http://www.w3.org/2000/svg">
<path d="M4.55566 20.417H19.4443C21.8398 20.417 23.1074 19.1387 23.1074 16.7754V3.73438C23.1074 1.37109 21.8398 0.103516 19.4443 0.103516H4.55566C2.1709 0.103516 0.892578 1.37109 0.892578 3.73438V16.7754C0.892578 19.1494 2.1709 20.417 4.55566 20.417ZM4.66309 17.957C3.80371 17.957 3.35254 17.5273 3.35254 16.6357V6.9248C3.35254 6.02246 3.80371 5.60352 4.66309 5.60352H19.3369C20.1855 5.60352 20.6475 6.02246 20.6475 6.9248V16.6357C20.6475 17.5273 20.1855 17.957 19.3369 17.957H4.66309ZM9.95898 9.19141H10.582C10.9795 9.19141 11.1084 9.07324 11.1084 8.68652V8.05273C11.1084 7.66602 10.9795 7.54785 10.582 7.54785H9.95898C9.56152 7.54785 9.43262 7.66602 9.43262 8.05273V8.68652C9.43262 9.07324 9.56152 9.19141 9.95898 9.19141ZM13.418 9.19141H14.0518C14.4385 9.19141 14.5674 9.07324 14.5674 8.68652V8.05273C14.5674 7.66602 14.4385 7.54785 14.0518 7.54785H13.418C13.0312 7.54785 12.8916 7.66602 12.8916 8.05273V8.68652C12.8916 9.07324 13.0312 9.19141 13.418 9.19141ZM16.877 9.19141H17.5107C17.8975 9.19141 18.0264 9.07324 18.0264 8.68652V8.05273C18.0264 7.66602 17.8975 7.54785 17.5107 7.54785H16.877C16.4902 7.54785 16.3613 7.66602 16.3613 8.05273V8.68652C16.3613 9.07324 16.4902 9.19141 16.877 9.19141ZM6.48926 12.5967H7.12305C7.50977 12.5967 7.64941 12.4785 7.64941 12.0918V11.458C7.64941 11.0713 7.50977 10.9531 7.12305 10.9531H6.48926C6.10254 10.9531 5.97363 11.0713 5.97363 11.458V12.0918C5.97363 12.4785 6.10254 12.5967 6.48926 12.5967ZM9.95898 12.5967H10.582C10.9795 12.5967 11.1084 12.4785 11.1084 12.0918V11.458C11.1084 11.0713 10.9795 10.9531 10.582 10.9531H9.95898C9.56152 10.9531 9.43262 11.0713 9.43262 11.458V12.0918C9.43262 12.4785 9.56152 12.5967 9.95898 12.5967ZM13.418 12.5967H14.0518C14.4385 12.5967 14.5674 12.4785 14.5674 12.0918V11.458C14.5674 11.0713 14.4385 10.9531 14.0518 10.9531H13.418C13.0312 10.9531 12.8916 11.0713 12.8916 11.458V12.0918C12.8916 12.4785 13.0312 12.5967 13.418 12.5967ZM16.877 12.5967H17.5107C17.8975 12.5967 18.0264 12.4785 18.0264 12.0918V11.458C18.0264 11.0713 17.8975 10.9531 17.5107 10.9531H16.877C16.4902 10.9531 16.3613 11.0713 16.3613 11.458V12.0918C16.3613 12.4785 16.4902 12.5967 16.877 12.5967ZM6.48926 16.0127H7.12305C7.50977 16.0127 7.64941 15.8838 7.64941 15.4971V14.874C7.64941 14.4873 7.50977 14.3584 7.12305 14.3584H6.48926C6.10254 14.3584 5.97363 14.4873 5.97363 14.874V15.4971C5.97363 15.8838 6.10254 16.0127 6.48926 16.0127ZM9.95898 16.0127H10.582C10.9795 16.0127 11.1084 15.8838 11.1084 15.4971V14.874C11.1084 14.4873 10.9795 14.3584 10.582 14.3584H9.95898C9.56152 14.3584 9.43262 14.4873 9.43262 14.874V15.4971C9.43262 15.8838 9.56152 16.0127 9.95898 16.0127ZM13.418 16.0127H14.0518C14.4385 16.0127 14.5674 15.8838 14.5674 15.4971V14.874C14.5674 14.4873 14.4385 14.3584 14.0518 14.3584H13.418C13.0312 14.3584 12.8916 14.4873 12.8916 14.874V15.4971C12.8916 15.8838 13.0312 16.0127 13.418 16.0127Z" fill="white"/>
</svg>
