<svg width="44" height="44" viewBox="0 0 44 44" fill="none" xmlns="http://www.w3.org/2000/svg">
<path d="M15.3697 30.3554C15.7287 30.3554 16.0127 30.1967 16.4553 29.7959L18.7601 27.6998C18.3008 27.3156 17.8916 26.6559 17.8916 25.4033V19.2737C17.8916 16.5847 19.5451 14.9562 22.2258 14.9562H28.3721L28.3637 14.7391C28.1884 13.119 27.1027 12 25.0567 12H13.332C11.261 12 10 13.1858 10 15.2569V23.7581C10 25.7874 11.2192 26.9983 13.2235 26.9983H14.5262V29.4117C14.5262 29.9879 14.8352 30.3554 15.3697 30.3554ZM29.8752 31.5913C30.4014 31.5913 30.7187 31.2239 30.7187 30.6477V28.2426H31.5705C33.5747 28.2426 34.7939 27.0233 34.7939 24.9941V19.4991C34.7939 17.4281 33.5413 16.2423 31.4619 16.2423H22.5097C20.3802 16.2423 19.1777 17.4198 19.1777 19.5576V24.9941C19.1777 27.0567 20.3802 28.2426 22.5097 28.2426H25.6664L28.7896 31.0318C29.2322 31.4326 29.5078 31.5913 29.8752 31.5913Z" fill="#AEAEB2"/>
</svg>
