<svg width="20" height="19" viewBox="0 0 20 19" fill="none" xmlns="http://www.w3.org/2000/svg">
<path d="M5.979 18.3784C6.49365 18.3784 6.89209 18.146 7.52295 17.5898L10.3535 15.0996H15.0933C17.6084 15.0996 19.0776 13.6055 19.0776 11.1235V4.59082C19.0776 2.10889 17.6084 0.606445 15.0933 0.606445H4.60107C2.08594 0.606445 0.616699 2.10059 0.616699 4.59082V11.1235C0.616699 13.6138 2.15234 15.0996 4.49316 15.0996H4.78369V17.042C4.78369 17.8638 5.23193 18.3784 5.979 18.3784ZM6.43555 16.2617V13.9292C6.43555 13.3979 6.20312 13.207 5.71338 13.207H4.69238C3.22314 13.207 2.51758 12.46 2.51758 11.0239V4.68213C2.51758 3.24609 3.22314 2.50732 4.69238 2.50732H15.002C16.4629 2.50732 17.1768 3.24609 17.1768 4.68213V11.0239C17.1768 12.46 16.4629 13.207 15.002 13.207H10.229C9.68945 13.207 9.44043 13.2983 9.05029 13.6885L6.43555 16.2617ZM9.85547 9.13135C10.3452 9.13135 10.6357 8.85742 10.6606 8.32617L10.7852 4.63232C10.8101 4.09277 10.4116 3.71924 9.84717 3.71924C9.27441 3.71924 8.88428 4.09277 8.90918 4.62402L9.03369 8.33447C9.05029 8.84912 9.34082 9.13135 9.85547 9.13135ZM9.85547 11.9287C10.4282 11.9287 10.8931 11.5386 10.8931 10.9741C10.8931 10.418 10.4365 10.0195 9.85547 10.0195C9.27441 10.0195 8.80957 10.418 8.80957 10.9741C8.80957 11.5303 9.27441 11.9287 9.85547 11.9287Z" fill="#C9372A"/>
</svg>
