<svg width="44" height="44" viewBox="0 0 44 44" fill="none" xmlns="http://www.w3.org/2000/svg">
<path d="M11 21.2387C11 21.8482 11.4407 22.3077 12.144 22.3077C12.4534 22.3077 12.7723 22.1577 13.0348 21.9326L21.7273 14.6373C22.0368 14.3747 22.3837 14.3747 22.7025 14.6373L31.3857 21.9326C31.6482 22.1577 31.9577 22.3077 32.2765 22.3077C32.9329 22.3077 33.4111 21.8951 33.4111 21.2575C33.4111 20.9012 33.2517 20.573 32.961 20.3385L30.4574 18.2287V14.3654C30.4574 13.9528 30.1948 13.6902 29.7822 13.6902H28.1881C27.7755 13.6902 27.5036 13.9528 27.5036 14.3654V15.7532L23.7434 12.5837C22.8151 11.8054 21.6148 11.8054 20.6865 12.5837L11.4501 20.3385C11.1594 20.5917 11 20.9199 11 21.2387ZM14.0288 29.3124C14.0288 30.6533 14.9196 31.4878 16.3262 31.4878H28.085C29.4915 31.4878 30.3823 30.6533 30.3823 29.3124V22.9641L22.7776 16.5877C22.4212 16.2783 21.9899 16.2877 21.6429 16.5877L14.0288 22.9641V29.3124ZM24.5967 29.4999H19.8238V24.0612C19.8238 23.6393 20.1051 23.3673 20.5271 23.3673H23.9028C24.3248 23.3673 24.5967 23.6393 24.5967 24.0612V29.4999Z" fill="#AEAEB2"/>
</svg>
