<svg width="20" height="19" viewBox="0 0 20 19" fill="none" xmlns="http://www.w3.org/2000/svg">
<path d="M13.7236 18.3784C14.4624 18.3784 14.9106 17.8638 14.9106 17.042V15.0996H15.2012C17.542 15.0996 19.0776 13.6138 19.0776 11.1235V4.59082C19.0776 2.10059 17.6084 0.606445 15.0933 0.606445H4.60107C2.08594 0.606445 0.616699 2.10889 0.616699 4.59082V11.1235C0.616699 13.6055 2.08594 15.0996 4.60107 15.0996H9.34082L12.1714 17.5898C12.8022 18.146 13.2007 18.3784 13.7236 18.3784ZM13.2588 16.2617L10.644 13.6885C10.2622 13.2983 10.0049 13.207 9.47363 13.207H4.69238C3.23145 13.207 2.51758 12.46 2.51758 11.0239V4.68213C2.51758 3.24609 3.23145 2.50732 4.69238 2.50732H15.002C16.4712 2.50732 17.1768 3.24609 17.1768 4.68213V11.0239C17.1768 12.46 16.4712 13.207 15.002 13.207H13.981C13.4995 13.207 13.2588 13.3979 13.2588 13.9292V16.2617Z" fill="white"/>
</svg>
