<svg width="22" height="22" viewBox="0 0 22 22" fill="none" xmlns="http://www.w3.org/2000/svg">
<path d="M11.29 21.7046C17.166 21.7046 22 16.8706 22 10.9946C22 5.11865 17.166 0.29541 11.29 0.29541C5.41406 0.29541 0.580078 5.11865 0.580078 10.9946C0.580078 16.8706 5.41406 21.7046 11.29 21.7046ZM9.53906 16.1616C8.9375 16.1616 8.51855 15.7534 8.51855 15.1519V14.5396H7.65918C7.3584 14.5396 7.18652 14.3462 7.18652 14.0669C7.18652 13.7876 7.3584 13.5942 7.65918 13.5942H8.51855V12.5845H7.64844C7.34766 12.5845 7.16504 12.3804 7.16504 12.1011C7.16504 11.8218 7.34766 11.6284 7.64844 11.6284H8.51855V7.48193C8.51855 6.80518 8.90527 6.40771 9.5498 6.40771H12.1602C14.1152 6.40771 15.3936 7.68604 15.3936 9.50146C15.3936 11.3062 14.0723 12.5845 12.085 12.5845H10.5488V13.5942H12.6758C12.9766 13.5942 13.1592 13.7876 13.1592 14.0669C13.1592 14.3462 12.9766 14.5396 12.6758 14.5396H10.5488V15.1519C10.5488 15.7534 10.1406 16.1616 9.53906 16.1616ZM10.5488 10.9624L11.7412 10.9731C12.7725 10.9731 13.3525 10.4038 13.3525 9.52295C13.3525 8.65283 12.7725 8.09424 11.7412 8.09424H10.5488V10.9624Z" fill="white"/>
</svg>
