<svg width="22" height="22" viewBox="0 0 22 22" fill="none" xmlns="http://www.w3.org/2000/svg">
<path d="M10.71 21.4092C16.5859 21.4092 21.4199 16.5752 21.4199 10.6992C21.4199 4.82324 16.5859 0 10.71 0C4.83398 0 0 4.82324 0 10.6992C0 16.5752 4.83398 21.4092 10.71 21.4092ZM8.95898 15.8662C8.35742 15.8662 7.93848 15.458 7.93848 14.8564V14.2441H7.0791C6.77832 14.2441 6.60645 14.0508 6.60645 13.7715C6.60645 13.4922 6.77832 13.2988 7.0791 13.2988H7.93848V12.2891H7.06836C6.76758 12.2891 6.58496 12.085 6.58496 11.8057C6.58496 11.5264 6.76758 11.333 7.06836 11.333H7.93848V7.18652C7.93848 6.50977 8.3252 6.1123 8.96973 6.1123H11.5801C13.5352 6.1123 14.8135 7.39062 14.8135 9.20605C14.8135 11.0107 13.4922 12.2891 11.5049 12.2891H9.96875V13.2988H12.0957C12.3965 13.2988 12.5791 13.4922 12.5791 13.7715C12.5791 14.0508 12.3965 14.2441 12.0957 14.2441H9.96875V14.8564C9.96875 15.458 9.56055 15.8662 8.95898 15.8662ZM9.96875 10.667L11.1611 10.6777C12.1924 10.6777 12.7725 10.1084 12.7725 9.22754C12.7725 8.35742 12.1924 7.79883 11.1611 7.79883H9.96875V10.667Z" fill="#EBEBF5" fill-opacity="0.6"/>
</svg>
