<svg width="44" height="44" viewBox="0 0 44 44" fill="none" xmlns="http://www.w3.org/2000/svg">
<path fill-rule="evenodd" clip-rule="evenodd" d="M19.8148 12.8086C19.9058 12.3386 20.3108 12 20.7846 12H23.7714C24.2452 12 24.6502 12.3386 24.7412 12.8086L25.0716 14.5235C25.883 14.8337 26.6343 15.2658 27.2933 15.8125L28.9199 15.2461C29.368 15.0911 29.862 15.2784 30.0984 15.6934L31.5899 18.3067C31.8263 18.7217 31.7402 19.2485 31.3831 19.5625L30.0791 20.709C30.1469 21.1304 30.1912 21.5593 30.1912 22.0001C30.1912 22.4408 30.1469 22.8697 30.0791 23.2911L31.3831 24.4376C31.7402 24.7516 31.8263 25.2765 31.5899 25.6915L30.0984 28.3067C29.861 28.7217 29.368 28.9081 28.9199 28.7521L27.2933 28.1857C26.6341 28.7327 25.8834 29.1663 25.0716 29.4767L24.7412 31.1915C24.6502 31.6615 24.2452 32.0001 23.7714 32.0001H20.7846C20.3108 32.0001 19.9058 31.6615 19.8148 31.1915L19.4844 29.4767C18.673 29.1665 17.9217 28.7343 17.2627 28.1876L15.6361 28.754C15.188 28.909 14.694 28.7217 14.4576 28.3067L12.9661 25.6934C12.7297 25.2784 12.8158 24.7516 13.1729 24.4376L14.4769 23.2911C14.4091 22.8697 14.3649 22.4408 14.3649 22.0001C14.3649 21.5593 14.4091 21.1304 14.4769 20.709L13.1729 19.5625C12.8158 19.2485 12.7297 18.7217 12.9661 18.3067L14.4576 15.6934C14.695 15.2794 15.188 15.0921 15.6361 15.2481L17.2627 15.8145C17.9219 15.2674 18.6726 14.8338 19.4844 14.5235L19.8148 12.8086ZM26.235 21.9997C26.235 19.7907 24.4635 17.9997 22.2785 17.9997C20.0934 17.9997 18.3219 19.7907 18.3219 21.9997C18.3219 24.2087 20.0934 25.9997 22.2785 25.9997C24.4635 25.9997 26.235 24.2087 26.235 21.9997Z" fill="#AEAEB2"/>
</svg>
