<svg width="20" height="24" viewBox="0 0 20 24" fill="none" xmlns="http://www.w3.org/2000/svg">
<path d="M7.74512 12.8037C8.22656 12.8037 8.6167 12.4136 8.6167 11.957V3.73096L8.54199 2.51074L9.01514 3.1416L10.1025 4.28711C10.2437 4.45312 10.4595 4.54443 10.667 4.54443C11.082 4.54443 11.4307 4.2373 11.4307 3.80566C11.4307 3.58154 11.3477 3.42383 11.1982 3.26611L8.42578 0.601562C8.19336 0.377441 7.97754 0.302734 7.74512 0.302734C7.521 0.302734 7.29688 0.377441 7.07275 0.601562L4.30029 3.26611C4.14258 3.42383 4.05957 3.58154 4.05957 3.80566C4.05957 4.2373 4.4082 4.54443 4.81494 4.54443C5.03076 4.54443 5.24658 4.45312 5.396 4.28711L6.4751 3.1416L6.95654 2.50244L6.88184 3.73096V11.957C6.88184 12.4136 7.26367 12.8037 7.74512 12.8037ZM2.94727 19.5356H5.13037V20.8555C5.13037 22.6816 6.11816 23.6611 7.96094 23.6611H16.8843C18.7271 23.6611 19.7148 22.6816 19.7148 20.8555V12.3389C19.7148 10.5044 18.7271 9.5332 16.8843 9.5332H15.3652V8.65332C15.3652 6.82715 14.3857 5.84766 12.5347 5.84766H10.3516V7.74854H12.3604C13.0742 7.74854 13.4727 8.10547 13.4727 8.86084V16.5142C13.4727 17.2695 13.0742 17.6348 12.3604 17.6348H3.12158C2.39941 17.6348 2.01758 17.2695 2.01758 16.5142V8.86084C2.01758 8.10547 2.39941 7.74854 3.12158 7.74854H5.16357V5.84766H2.94727C1.10449 5.84766 0.116699 6.82715 0.116699 8.65332V16.7217C0.116699 18.5562 1.10449 19.5356 2.94727 19.5356ZM8.13525 21.7603C7.42969 21.7603 7.03125 21.4033 7.03125 20.6479V19.5356H12.5347C14.3857 19.5356 15.3652 18.5479 15.3652 16.7217V11.4341H16.71C17.4321 11.4341 17.814 11.791 17.814 12.5464V20.6479C17.814 21.4033 17.4321 21.7603 16.71 21.7603H8.13525Z" fill="white"/>
</svg>
