<svg width="25" height="20" viewBox="0 0 25 20" fill="none" xmlns="http://www.w3.org/2000/svg">
<path d="M18.7508 19.0308L23.615 14.0215C23.8568 13.7798 24.0212 13.4026 24.0212 13.0642C24.0212 12.2906 23.4699 11.749 22.6963 11.749C22.3385 11.749 22.0194 11.8651 21.7776 12.1262L19.8145 14.1666L19.0506 15.0466L19.0989 13.3253V1.92394C19.0989 1.16965 18.5284 0.599097 17.7644 0.599097C17.0005 0.599097 16.4299 1.16965 16.4299 1.92394V13.3253L16.4783 15.0466L15.724 14.1666L13.7512 12.1262C13.5095 11.8651 13.1904 11.749 12.8326 11.749C12.0589 11.749 11.5077 12.2906 11.5077 13.0642C11.5077 13.4026 11.6721 13.7798 11.9139 14.0215L16.7781 19.0308C17.3293 19.6013 18.1996 19.6013 18.7508 19.0308ZM5.27034 1.02459L0.406155 6.01449C0.154726 6.26592 0 6.64307 0 6.98153C0 7.75516 0.55121 8.2967 1.31517 8.2967C1.68264 8.2967 2.00176 8.18065 2.24352 7.91955L4.2066 5.86944L4.97056 4.98944L4.92221 6.71076V18.1121C4.92221 18.8857 5.49276 19.4563 6.25672 19.4563C7.02067 19.4563 7.58155 18.8857 7.58155 18.1121V6.71076L7.54287 4.98944L8.29716 5.86944L10.2602 7.91955C10.5117 8.18065 10.8308 8.2967 11.1886 8.2967C11.9526 8.2967 12.5038 7.75516 12.5038 6.98153C12.5038 6.64307 12.349 6.26592 12.0976 6.01449L7.24309 1.02459C6.69188 0.454042 5.82155 0.454042 5.27034 1.02459Z" fill="white"/>
</svg>
