<svg width="21" height="23" viewBox="0 0 21 23" fill="none" xmlns="http://www.w3.org/2000/svg">
<path d="M12.2604 21.8355L19.7418 17.4996C20.5935 17.006 21 16.5511 21 15.8639C21 15.1671 20.5935 14.7219 19.7418 14.2186L18.6191 13.5701L19.7418 12.9217C20.5935 12.4281 21 11.9732 21 11.286C21 10.5892 20.5935 10.144 19.7418 9.6504L18.4062 8.87613L19.7418 8.10186C20.5935 7.59859 21 7.15338 21 6.46622C21 5.76937 20.5935 5.32417 19.7418 4.82089L12.2604 0.484983C11.7184 0.175275 11.3023 0.0107422 10.8667 0.0107422C10.4409 0.0107422 10.0247 0.175275 9.48274 0.484983L2.00135 4.82089C1.14966 5.32417 0.743164 5.76937 0.743164 6.46622C0.743164 7.15338 1.14966 7.59859 2.00135 8.10186L3.33697 8.87613L2.00135 9.6504C1.14966 10.144 0.743164 10.5892 0.743164 11.286C0.743164 11.9732 1.14966 12.4281 2.00135 12.9217L3.12404 13.5701L2.00135 14.2186C1.14966 14.7219 0.743164 15.1671 0.743164 15.8639C0.743164 16.5511 1.14966 17.006 2.00135 17.4996L9.48274 21.8355C10.0247 22.1452 10.4409 22.3097 10.8667 22.3097C11.3023 22.3097 11.7184 22.1452 12.2604 21.8355ZM10.8667 12.912C11.3023 12.912 11.7184 12.7475 12.2604 12.4378L16.2479 10.1246L18.1255 11.1893C18.1642 11.2183 18.1933 11.2377 18.1933 11.286C18.1933 11.3248 18.1642 11.3538 18.1255 11.3732L11.2345 15.2929C11.0893 15.3703 10.9829 15.409 10.8667 15.409C10.7506 15.409 10.6441 15.3703 10.5086 15.2929L3.61764 11.3732C3.56925 11.3538 3.54989 11.3248 3.54989 11.286C3.54989 11.2377 3.56925 11.2183 3.61764 11.1893L5.49525 10.1246L9.48274 12.4378C10.0247 12.7475 10.4409 12.912 10.8667 12.912ZM10.5086 19.8611L3.61764 15.951C3.56925 15.9317 3.54989 15.9026 3.54989 15.8639C3.54989 15.8155 3.56925 15.7962 3.61764 15.7671L5.28232 14.8283L9.48274 17.2576C10.0247 17.5673 10.4409 17.7318 10.8667 17.7318C11.3023 17.7318 11.7184 17.5673 12.2604 17.2576L16.4608 14.8283L18.1255 15.7671C18.1642 15.7962 18.1933 15.8155 18.1933 15.8639C18.1933 15.9026 18.1642 15.9317 18.1255 15.951L11.2345 19.8611C11.0893 19.9385 10.9829 19.9772 10.8667 19.9772C10.7506 19.9772 10.6441 19.9385 10.5086 19.8611Z" fill="white"/>
</svg>
