<svg width="45" height="44" viewBox="0 0 45 44" fill="none" xmlns="http://www.w3.org/2000/svg">
<path d="M19.0824 15.5788V16.4855H25.9177V15.5788C25.9177 15.2213 25.6823 14.9946 25.2725 14.9946H19.7276C19.3265 14.9946 19.0824 15.2213 19.0824 15.5788ZM22.5 21.8473C19.0388 21.8473 15.6561 21.2806 12.5 19.9554V19.3713C12.5 17.4794 13.5113 16.4855 15.412 16.4855H17.0859V15.509C17.0859 14.053 18.01 13.2161 19.5968 13.2161H25.4033C26.99 13.2161 27.9142 14.053 27.9142 15.509V16.4855H29.5881C31.4975 16.4855 32.5001 17.4794 32.5001 19.3713V19.9554C29.344 21.2806 25.9613 21.8473 22.5 21.8473ZM15.412 30.7837C13.5113 30.7837 12.5 29.7898 12.5 27.8979V21.7863C15.2289 22.7802 17.5916 23.2335 20.0066 23.4166V24.0967C20.0066 24.7941 20.4076 25.1778 21.14 25.1778H23.8601C24.5925 25.1778 24.9935 24.7941 24.9935 24.0967V23.4166C27.3998 23.2335 29.7625 22.7802 32.5001 21.7863V27.8979C32.5001 29.7898 31.4975 30.7837 29.5881 30.7837H15.412Z" fill="#AEAEB2"/>
</svg>
